<svg version="1.1" id="Layer_1" xmlns="http://www.w3.org/2000/svg" xmlns:xlink="http://www.w3.org/1999/xlink" x="0px" y="0px"
	 width="100%" viewBox="0 0 600 338" enable-background="new 0 0 600 338" xml:space="preserve">
<path fill="#47704C" opacity="1.000000" stroke="none" 
	d="
M394.000000,339.000000 
	C262.666656,339.000000 131.833328,339.000000 1.000000,339.000000 
	C1.000000,226.333328 1.000000,113.666664 1.000000,1.000000 
	C201.000000,1.000000 401.000000,1.000000 601.000000,1.000000 
	C601.000000,113.666664 601.000000,226.333328 601.000000,339.000000 
	C532.166687,339.000000 463.333344,339.000000 394.000000,339.000000 
M162.270859,216.779526 
	C160.147400,214.989212 158.264343,212.735107 155.859100,211.488464 
	C145.141479,205.933533 133.586685,203.439697 121.573540,203.022568 
	C117.475334,202.880280 113.368027,203.000000 109.446205,203.000000 
	C108.926804,197.145905 108.978798,191.802704 107.847038,186.723282 
	C106.813789,182.085968 104.833679,177.554657 102.578918,173.347473 
	C101.708015,171.722412 98.932022,171.118378 97.023972,170.049164 
	C96.008202,171.947403 94.324341,173.768158 94.093666,175.757416 
	C93.153793,183.862671 92.639160,192.018005 92.017151,200.158661 
	C91.897537,201.724121 91.999977,203.306549 91.999977,204.499771 
	C77.928673,206.601669 65.130989,209.797394 53.849442,217.568542 
	C46.162308,222.863724 44.711945,230.208572 50.287605,237.707733 
	C51.901592,239.878479 54.159443,241.560547 56.033825,243.549820 
	C59.538776,247.269638 62.513603,251.681122 66.552528,254.661835 
	C73.059616,259.464050 80.288483,263.280060 87.134148,267.635742 
	C89.830872,269.351593 92.527794,270.704132 91.231659,275.310394 
	C89.749741,280.576904 96.454811,285.142731 101.872185,285.325989 
	C108.437469,285.548096 109.248322,281.379364 110.553154,276.605865 
	C116.021584,277.435822 121.184845,278.935516 126.321938,278.850708 
	C137.173019,278.671539 148.119827,278.402435 158.826706,276.815918 
	C173.376434,274.660034 186.764450,269.297638 196.768066,257.715729 
	C202.906494,250.608841 207.842651,242.784653 208.942581,233.255493 
	C210.477173,219.960464 206.240128,208.185226 198.828629,197.289856 
	C185.034439,177.011459 166.619324,161.898758 144.896820,151.230042 
	C131.588486,144.693832 117.485130,139.263168 103.178688,135.422379 
	C89.901665,131.857941 75.934158,130.323547 62.167244,129.333313 
	C54.182842,128.759003 45.959160,130.797272 37.907730,132.068771 
	C29.785885,133.351395 22.518450,136.205719 18.860182,144.583511 
	C17.172775,148.447815 17.850239,151.661865 21.366272,152.683594 
	C26.216524,154.093033 31.156839,155.097031 36.644398,151.923309 
	C35.419968,149.761917 34.276260,147.743011 32.589176,144.764938 
	C37.678791,144.145493 42.399498,143.000229 47.086437,143.124847 
	C55.616573,143.351654 64.227402,143.734329 72.619934,145.148041 
	C83.422943,146.967743 94.429077,148.816376 104.647697,152.562180 
	C117.812996,157.388153 130.547592,163.608185 142.972061,170.166702 
	C152.899231,175.406982 162.446487,181.568695 170.305161,189.845245 
	C172.504364,192.161362 174.869019,194.489304 176.404465,197.233337 
	C180.183487,203.986862 183.524826,210.985291 187.076538,218.650925 
	C187.995468,220.767365 188.914398,222.883804 189.976669,225.825348 
	C189.928894,227.216843 189.881119,228.608322 189.231720,230.303223 
	C183.806274,244.597046 173.831329,253.238434 158.637451,256.395966 
	C145.189560,259.190674 131.808731,260.771576 118.131187,258.910370 
	C115.027885,258.488098 113.958832,256.699890 113.991013,253.764389 
	C114.053055,248.106232 114.156067,242.440903 113.952347,236.788986 
	C113.467163,223.328247 113.426849,223.146698 126.862999,225.180161 
	C133.129303,226.128510 139.263885,227.947266 144.723511,229.202576 
	C144.032684,232.140335 143.573944,234.091064 143.022858,236.668610 
	C143.362640,237.407486 143.702423,238.146362 144.083969,239.661713 
	C145.780548,241.097641 147.292282,243.413345 149.206085,243.815491 
	C157.023010,245.458023 162.977081,242.076355 167.597092,235.852264 
	C172.008987,229.908554 169.405945,219.360092 162.270859,216.779526 
M477.466431,76.977257 
	C475.925262,75.766823 474.310547,74.638443 472.854584,73.332993 
	C460.766205,62.494568 447.308441,53.631508 433.019226,46.040462 
	C417.352631,37.717728 401.081177,30.538849 383.799988,26.583517 
	C366.380219,22.596464 348.718445,19.063580 330.967102,17.294168 
	C312.429382,15.446368 293.832001,17.692509 275.368042,20.862190 
	C253.945404,24.539780 233.441299,30.803194 213.671646,39.720253 
	C184.990433,52.656853 160.483673,71.275322 139.302185,94.372833 
	C138.095581,95.688591 138.237564,98.241058 137.751892,100.217941 
	C139.875397,99.603607 142.530426,99.595253 144.035141,98.275436 
	C153.021713,90.393105 161.219925,81.525978 170.672104,74.279984 
	C186.051086,62.490536 202.960800,53.168922 221.044296,45.902557 
	C244.193481,36.600666 268.210175,30.666027 292.950714,29.278708 
	C316.122498,27.979357 339.325836,28.704693 362.358307,33.759708 
	C389.830322,39.789108 415.515198,49.774654 439.128540,64.806885 
	C457.321167,76.388313 473.406128,90.480476 487.093079,107.391884 
	C500.858246,124.399956 511.826843,142.802734 519.240295,163.387634 
	C520.011047,165.527832 522.269287,168.698227 523.825500,168.691376 
	C528.212036,168.672073 533.493713,171.256546 537.012024,166.285889 
	C536.276855,164.560654 535.721802,163.034164 534.997375,161.592789 
	C527.861206,147.394318 521.363342,132.820877 513.365784,119.123672 
	C504.103180,103.259804 491.251709,90.106888 477.466431,76.977257 
M435.479614,274.018158 
	C436.586670,269.079224 439.650085,268.178314 444.568604,267.656708 
	C450.091705,267.071014 455.760773,264.556213 460.575439,261.594818 
	C464.764648,259.018127 468.018341,254.799789 471.394836,251.045563 
	C480.796936,240.591660 483.338043,228.054352 479.692871,214.964859 
	C476.948730,205.110962 469.463196,201.689957 461.100342,206.911713 
	C453.882721,211.418350 448.010742,218.235626 442.005524,224.475677 
	C437.785370,228.860855 434.340057,233.991714 430.548737,238.789581 
	C430.348694,235.204559 430.738403,231.904388 432.085358,229.057053 
	C435.550476,221.732086 439.758179,214.746017 442.979858,207.325287 
	C444.049530,204.861404 443.021423,201.486801 442.952393,198.528564 
	C440.617767,199.751663 438.277954,200.965027 435.955811,202.211380 
	C435.694916,202.351425 435.549469,202.693481 435.325073,202.916245 
	C424.784607,213.381409 416.658600,224.923981 417.964600,240.843903 
	C418.248962,244.310226 416.808990,248.641937 418.414154,251.112808 
	C421.076233,255.210815 419.482758,257.998322 417.956482,261.334625 
	C416.877838,263.692444 415.914612,266.102844 414.881866,268.481934 
	C409.147064,281.692719 407.981934,293.686584 407.484619,305.125732 
	C407.165466,312.467438 410.790161,316.484192 414.682617,320.877747 
	C415.998199,322.362732 419.058990,322.872559 421.259399,322.744965 
	C422.255737,322.687195 423.458252,320.089661 423.931152,318.459778 
	C424.741302,315.667511 424.863281,312.680725 425.604645,309.862549 
	C428.691956,298.126892 431.902588,286.423706 435.479614,274.018158 
M299.995331,239.998199 
	C298.064758,232.460083 294.007690,227.117050 285.761383,225.913025 
	C277.230530,224.667435 268.715271,223.314880 260.195129,221.996536 
	C256.528625,221.429230 252.867035,220.830200 249.203201,220.245590 
	C249.205765,219.674759 249.208328,219.103928 249.210892,218.533096 
	C253.916214,217.688904 258.590363,216.477829 263.333160,216.075104 
	C273.991394,215.170105 284.726135,215.016876 295.329987,213.733658 
	C297.750977,213.440689 299.768066,209.810226 301.971069,207.715851 
	C300.554260,206.249573 299.288422,204.577621 297.668335,203.388229 
	C296.559906,202.574432 294.971527,202.383286 293.574310,201.998672 
	C279.210968,198.044891 264.842987,199.301315 250.859314,203.271408 
	C242.203705,205.728806 234.325424,210.162750 233.397873,221.002151 
	C232.971909,225.979813 235.892807,230.205353 240.881668,231.019562 
	C244.412827,231.595856 247.919571,232.321716 251.437210,232.980804 
	C249.119202,234.595322 246.797211,235.204575 244.550217,236.020386 
	C238.420074,238.246063 234.647369,246.594101 238.001953,251.445557 
	C240.440048,254.971619 243.345505,258.746216 246.962402,260.748077 
	C252.064789,263.572144 257.886841,265.529419 263.636444,266.649353 
	C272.328613,268.342407 281.200836,267.003540 289.027771,263.162567 
	C297.880890,258.818085 301.187012,250.707306 299.995331,239.998199 
M360.094025,245.607285 
	C362.324005,232.717834 361.286865,220.222549 355.681854,208.249878 
	C352.580139,201.624435 348.717346,195.602493 342.229095,191.819626 
	C339.295837,190.109406 336.892303,190.550156 336.631592,194.570053 
	C336.522827,196.247223 336.545380,198.002457 336.916168,199.629196 
	C338.546448,206.781662 340.303894,213.905518 342.060760,221.028519 
	C342.876129,224.334366 344.839264,227.227188 344.245117,231.053558 
	C343.845825,233.625107 345.086639,236.451340 345.593689,239.163635 
	C345.087677,239.268845 344.581665,239.374069 344.075653,239.479294 
	C343.750885,239.114609 343.374115,238.784088 343.109009,238.380219 
	C336.965820,229.022324 330.978851,219.557816 324.656830,210.322617 
	C319.381592,202.616547 313.123627,203.298782 309.066010,211.769180 
	C308.581573,212.780457 308.153564,213.874985 307.988800,214.974289 
	C306.620575,224.103668 305.025452,233.213715 304.107239,242.390488 
	C303.529663,248.162674 303.683716,254.062408 304.107330,259.861267 
	C304.388824,263.714447 309.084656,268.037048 311.620422,267.734772 
	C315.283875,267.298096 318.727905,263.170624 318.975525,258.628265 
	C319.388885,251.045792 319.643158,243.454803 320.019257,235.870102 
	C320.093842,234.365402 320.415039,232.872894 320.805786,230.051620 
	C322.330994,232.879776 323.081573,234.471039 324.006653,235.953354 
	C328.774384,243.593170 333.267639,251.431992 338.477570,258.759918 
	C343.247772,265.469269 351.655334,264.905518 355.926727,257.697540 
	C357.918854,254.335861 358.689301,250.250229 360.094025,245.607285 
M373.395294,270.831726 
	C388.170380,272.012695 400.499268,266.911987 411.001526,256.612671 
	C413.661804,254.003799 413.270569,251.725861 411.602020,249.233429 
	C408.349060,244.374252 403.531952,245.852798 399.033661,246.490463 
	C393.117737,247.329132 387.224487,248.327637 381.128448,249.287796 
	C382.555176,238.727310 383.333282,238.091476 392.506104,237.958267 
	C396.591309,237.898956 400.668060,237.166168 404.751984,237.131439 
	C411.318329,237.075592 408.724274,232.211578 408.883911,229.171082 
	C409.085358,225.334244 406.130341,224.911301 403.029114,224.975525 
	C398.439148,225.070572 393.845703,225.000076 389.236755,225.000076 
	C389.627075,219.349380 392.284637,217.824448 397.406921,217.829956 
	C404.415985,217.837463 411.443817,216.792694 418.427856,215.914719 
	C421.364624,215.545532 422.765137,213.339859 421.728424,210.480652 
	C419.359131,203.946152 413.357941,199.890091 406.255585,200.043976 
	C401.660339,200.143539 397.038879,200.415512 392.491791,201.055313 
	C384.283508,202.210251 376.095764,203.561005 367.955139,205.120712 
	C365.015594,205.683899 363.680634,207.876617 365.961853,210.475479 
	C368.705444,213.601135 371.845673,216.378601 375.529724,220.012619 
	C373.987671,221.682861 372.013855,225.277771 369.008057,226.716171 
	C365.043365,228.613449 364.529572,230.509140 365.581238,234.353058 
	C366.234192,236.739685 365.740204,239.526031 365.390808,242.082397 
	C364.739624,246.846649 362.852264,251.657013 363.251007,256.295929 
	C363.764069,262.264954 367.303772,267.181000 373.395294,270.831726 
M527.498108,207.998779 
	C527.692871,210.885910 527.887634,213.773026 528.105347,217.000000 
	C520.117004,217.000000 512.814270,216.917801 505.514801,217.035065 
	C501.927094,217.092697 497.643768,216.436905 495.000244,218.149368 
	C493.147919,219.349243 493.555969,224.013596 492.921661,227.124023 
	C491.735321,232.941437 491.747772,232.987335 497.472412,232.995789 
	C507.589813,233.010742 517.707275,232.999969 528.347778,232.999969 
	C527.189880,241.385406 526.277527,249.190796 525.003479,256.936707 
	C523.114990,268.417572 520.025513,269.097168 534.317078,269.101196 
	C538.386963,269.102325 540.070190,266.979553 540.884766,263.812836 
	C541.610962,260.989319 541.681702,257.993256 541.995483,255.068359 
	C542.776245,247.791367 543.530518,240.511536 544.319885,233.000000 
	C552.621582,233.000000 560.596680,233.043091 568.571167,232.989487 
	C579.390076,232.916763 577.613647,234.377945 578.115356,223.341309 
	C578.353394,218.105042 576.310974,216.809769 571.573853,216.931732 
	C562.467651,217.166199 553.351196,217.000046 544.229614,217.000046 
	C543.779480,212.871399 543.397278,209.295776 542.998352,205.722031 
	C542.290283,199.379791 541.738281,193.012527 540.746704,186.714691 
	C540.484009,185.046539 538.956604,182.353928 537.836121,182.262512 
	C533.648132,181.920853 529.381409,182.397690 525.170105,182.823654 
	C524.892334,182.851761 524.590454,185.046478 524.708496,186.191254 
	C525.430725,193.194626 526.270874,200.185837 527.498108,207.998779 
M212.402664,149.930893 
	C210.344086,151.940186 208.579803,154.448563 206.173203,155.867645 
	C198.124527,160.613602 195.452271,175.825012 202.160263,183.546722 
	C202.822891,184.309525 204.052917,185.496857 203.845093,185.959351 
	C201.181915,191.885727 205.862930,194.056503 209.425766,197.616928 
	C212.483200,191.201065 217.942841,191.926010 223.266937,191.946091 
	C226.007294,191.956421 228.766281,191.513565 231.488434,191.091995 
	C243.630707,189.211548 251.856888,181.210037 259.709137,172.746246 
	C263.821686,168.313416 265.627655,159.702042 262.888123,155.938431 
	C257.636871,148.724152 249.689667,144.626083 241.641998,142.295135 
	C231.294434,139.298080 221.679489,143.573151 212.402664,149.930893 
M231.001282,245.238632 
	C230.666504,236.316254 230.584106,227.374039 229.884995,218.480301 
	C229.560623,214.353928 228.477570,210.135361 226.867554,206.326736 
	C226.078140,204.459335 223.224365,202.257111 221.445480,202.372574 
	C219.832565,202.477280 217.681839,205.296036 217.055389,207.317154 
	C215.735611,211.575043 214.813248,216.066162 214.533844,220.512222 
	C214.038834,228.389008 214.188400,236.304779 213.969467,244.201492 
	C213.911987,246.274536 213.235977,248.345734 213.302094,250.403046 
	C213.387009,253.045456 214.487030,255.744293 214.158722,258.291046 
	C213.600967,262.617432 216.692688,267.645203 221.490982,269.002014 
	C225.264755,270.069122 230.661865,267.385651 231.102402,263.243347 
	C231.699814,257.625946 231.097321,251.880905 231.001282,245.238632 
z"/>
<path fill="#FFFFFF" opacity="1.000000" stroke="none" 
	d="
M187.042191,217.885223 
	C183.524826,210.985291 180.183487,203.986862 176.404465,197.233337 
	C174.869019,194.489304 172.504364,192.161362 170.305161,189.845245 
	C162.446487,181.568695 152.899231,175.406982 142.972061,170.166702 
	C130.547592,163.608185 117.812996,157.388153 104.647697,152.562180 
	C94.429077,148.816376 83.422943,146.967743 72.619934,145.148041 
	C64.227402,143.734329 55.616573,143.351654 47.086437,143.124847 
	C42.399498,143.000229 37.678791,144.145493 32.589176,144.764938 
	C34.276260,147.743011 35.419968,149.761917 36.644398,151.923309 
	C31.156839,155.097031 26.216524,154.093033 21.366272,152.683594 
	C17.850239,151.661865 17.172775,148.447815 18.860182,144.583511 
	C22.518450,136.205719 29.785885,133.351395 37.907730,132.068771 
	C45.959160,130.797272 54.182842,128.759003 62.167244,129.333313 
	C75.934158,130.323547 89.901665,131.857941 103.178688,135.422379 
	C117.485130,139.263168 131.588486,144.693832 144.896820,151.230042 
	C166.619324,161.898758 185.034439,177.011459 198.828629,197.289856 
	C206.240128,208.185226 210.477173,219.960464 208.942581,233.255493 
	C207.842651,242.784653 202.906494,250.608841 196.768066,257.715729 
	C186.764450,269.297638 173.376434,274.660034 158.826706,276.815918 
	C148.119827,278.402435 137.173019,278.671539 126.321938,278.850708 
	C121.184845,278.935516 116.021584,277.435822 110.553154,276.605865 
	C109.248322,281.379364 108.437469,285.548096 101.872185,285.325989 
	C96.454811,285.142731 89.749741,280.576904 91.231659,275.310394 
	C92.527794,270.704132 89.830872,269.351593 87.134148,267.635742 
	C80.288483,263.280060 73.059616,259.464050 66.552528,254.661835 
	C62.513603,251.681122 59.538776,247.269638 56.033825,243.549820 
	C54.159443,241.560547 51.901592,239.878479 50.287605,237.707733 
	C44.711945,230.208572 46.162308,222.863724 53.849442,217.568542 
	C65.130989,209.797394 77.928673,206.601669 91.999977,204.499771 
	C91.999977,203.306549 91.897537,201.724121 92.017151,200.158661 
	C92.639160,192.018005 93.153793,183.862671 94.093666,175.757416 
	C94.324341,173.768158 96.008202,171.947403 97.023972,170.049164 
	C98.932022,171.118378 101.708015,171.722412 102.578918,173.347473 
	C104.833679,177.554657 106.813789,182.085968 107.847038,186.723282 
	C108.978798,191.802704 108.926804,197.145905 109.446205,203.000000 
	C113.368027,203.000000 117.475334,202.880280 121.573540,203.022568 
	C133.586685,203.439697 145.141479,205.933533 155.859100,211.488464 
	C158.264343,212.735107 160.147400,214.989212 162.738068,217.250137 
	C165.194275,221.284454 167.113113,224.883957 165.385834,229.133087 
	C161.684677,238.237946 155.110046,242.453094 144.042206,238.885239 
	C143.702423,238.146362 143.362640,237.407486 143.388611,236.215073 
	C145.048203,235.097290 146.581787,234.678940 147.577194,233.708542 
	C148.920944,232.398483 150.706680,230.644608 150.672256,229.117920 
	C150.647247,228.009003 148.115082,226.621048 146.460175,225.959183 
	C143.624893,224.825226 140.639908,223.984985 137.649734,223.333862 
	C128.266922,221.290695 118.881287,219.073456 109.807007,220.235687 
	C109.807007,234.442474 109.807007,248.140686 109.807007,261.725403 
	C116.794144,262.546844 122.981895,263.932587 129.152786,263.861176 
	C141.574905,263.717438 154.002838,262.718048 165.703384,257.952515 
	C178.448318,252.761627 188.206924,244.854614 189.833344,229.999817 
	C189.881119,228.608322 189.928894,227.216843 189.975815,225.020508 
	C188.997375,222.105515 188.019791,219.995377 187.042191,217.885223 
M58.495483,236.995361 
	C68.137680,245.055359 78.443520,251.975052 90.806389,256.074310 
	C90.806389,243.933716 90.806389,232.178574 90.806389,219.995071 
	C85.461746,220.684647 80.299561,221.093750 75.246643,222.068985 
	C69.208092,223.234436 63.191212,224.644348 57.302341,226.407318 
	C53.287231,227.609329 52.718807,230.828873 55.509869,234.009003 
	C56.275951,234.881882 57.154896,235.655701 58.495483,236.995361 
z"/>
<path fill="#FFFFFF" opacity="1.000000" stroke="none" 
	d="
M477.722900,77.223969 
	C491.251709,90.106888 504.103180,103.259804 513.365784,119.123672 
	C521.363342,132.820877 527.861206,147.394318 534.997375,161.592789 
	C535.721802,163.034164 536.276855,164.560654 537.012024,166.285889 
	C533.493713,171.256546 528.212036,168.672073 523.825500,168.691376 
	C522.269287,168.698227 520.011047,165.527832 519.240295,163.387634 
	C511.826843,142.802734 500.858246,124.399956 487.093079,107.391884 
	C473.406128,90.480476 457.321167,76.388313 439.128540,64.806885 
	C415.515198,49.774654 389.830322,39.789108 362.358307,33.759708 
	C339.325836,28.704693 316.122498,27.979357 292.950714,29.278708 
	C268.210175,30.666027 244.193481,36.600666 221.044296,45.902557 
	C202.960800,53.168922 186.051086,62.490536 170.672104,74.279984 
	C161.219925,81.525978 153.021713,90.393105 144.035141,98.275436 
	C142.530426,99.595253 139.875397,99.603607 137.751892,100.217941 
	C138.237564,98.241058 138.095581,95.688591 139.302185,94.372833 
	C160.483673,71.275322 184.990433,52.656853 213.671646,39.720253 
	C233.441299,30.803194 253.945404,24.539780 275.368042,20.862190 
	C293.832001,17.692509 312.429382,15.446368 330.967102,17.294168 
	C348.718445,19.063580 366.380219,22.596464 383.799988,26.583517 
	C401.081177,30.538849 417.352631,37.717728 433.019226,46.040462 
	C447.308441,53.631508 460.766205,62.494568 472.854584,73.332993 
	C474.310547,74.638443 475.925262,75.766823 477.722900,77.223969 
z"/>
<path fill="#FFFFFF" opacity="1.000000" stroke="none" 
	d="
M435.273804,274.363373 
	C431.902588,286.423706 428.691956,298.126892 425.604645,309.862549 
	C424.863281,312.680725 424.741302,315.667511 423.931152,318.459778 
	C423.458252,320.089661 422.255737,322.687195 421.259399,322.744965 
	C419.058990,322.872559 415.998199,322.362732 414.682617,320.877747 
	C410.790161,316.484192 407.165466,312.467438 407.484619,305.125732 
	C407.981934,293.686584 409.147064,281.692719 414.881866,268.481934 
	C415.914612,266.102844 416.877838,263.692444 417.956482,261.334625 
	C419.482758,257.998322 421.076233,255.210815 418.414154,251.112808 
	C416.808990,248.641937 418.248962,244.310226 417.964600,240.843903 
	C416.658600,224.923981 424.784607,213.381409 435.325073,202.916245 
	C435.549469,202.693481 435.694916,202.351425 435.955811,202.211380 
	C438.277954,200.965027 440.617767,199.751663 442.952393,198.528564 
	C443.021423,201.486801 444.049530,204.861404 442.979858,207.325287 
	C439.758179,214.746017 435.550476,221.732086 432.085358,229.057053 
	C430.738403,231.904388 430.348694,235.204559 430.548737,238.789581 
	C434.340057,233.991714 437.785370,228.860855 442.005524,224.475677 
	C448.010742,218.235626 453.882721,211.418350 461.100342,206.911713 
	C469.463196,201.689957 476.948730,205.110962 479.692871,214.964859 
	C483.338043,228.054352 480.796936,240.591660 471.394836,251.045563 
	C468.018341,254.799789 464.764648,259.018127 460.575439,261.594818 
	C455.760773,264.556213 450.091705,267.071014 444.568604,267.656708 
	C439.650085,268.178314 436.586670,269.079224 435.273804,274.363373 
M469.954437,232.107483 
	C470.635864,229.123810 471.529572,226.165894 471.896606,223.144043 
	C472.048157,221.896301 471.069519,220.511261 470.604889,219.188675 
	C469.333099,219.697403 467.601471,219.840393 466.860779,220.771576 
	C459.697662,229.777298 452.700989,238.915390 445.656769,248.015656 
	C446.110535,248.408264 446.564331,248.800858 447.018127,249.193451 
	C457.465942,247.876831 464.530396,241.737839 469.954437,232.107483 
z"/>
<path fill="#FFFFFF" opacity="1.000000" stroke="none" 
	d="
M299.997345,240.443314 
	C301.187012,250.707306 297.880890,258.818085 289.027771,263.162567 
	C281.200836,267.003540 272.328613,268.342407 263.636444,266.649353 
	C257.886841,265.529419 252.064789,263.572144 246.962402,260.748077 
	C243.345505,258.746216 240.440048,254.971619 238.001953,251.445557 
	C234.647369,246.594101 238.420074,238.246063 244.550217,236.020386 
	C246.797211,235.204575 249.119202,234.595322 251.437210,232.980804 
	C247.919571,232.321716 244.412827,231.595856 240.881668,231.019562 
	C235.892807,230.205353 232.971909,225.979813 233.397873,221.002151 
	C234.325424,210.162750 242.203705,205.728806 250.859314,203.271408 
	C264.842987,199.301315 279.210968,198.044891 293.574310,201.998672 
	C294.971527,202.383286 296.559906,202.574432 297.668335,203.388229 
	C299.288422,204.577621 300.554260,206.249573 301.971069,207.715851 
	C299.768066,209.810226 297.750977,213.440689 295.329987,213.733658 
	C284.726135,215.016876 273.991394,215.170105 263.333160,216.075104 
	C258.590363,216.477829 253.916214,217.688904 249.210892,218.533096 
	C249.208328,219.103928 249.205765,219.674759 249.203201,220.245590 
	C252.867035,220.830200 256.528625,221.429230 260.195129,221.996536 
	C268.715271,223.314880 277.230530,224.667435 285.761383,225.913025 
	C294.007690,227.117050 298.064758,232.460083 299.997345,240.443314 
M266.838104,250.976593 
	C272.839935,249.188446 279.108582,247.989639 284.761444,245.430618 
	C289.511169,243.280472 289.248566,239.763214 284.264252,237.919373 
	C279.027252,235.982040 273.356995,235.186035 267.846283,234.033630 
	C265.683472,233.581360 263.439911,233.515350 261.233093,233.273422 
	C267.860992,235.750351 274.307556,237.697342 280.625488,239.997589 
	C284.105133,241.264496 284.277954,243.668274 280.771301,244.928391 
	C276.003326,246.641754 270.964722,247.601990 265.679321,248.238037 
	C262.376282,246.938644 259.166382,245.213074 255.742905,244.464630 
	C252.577408,243.772598 249.035416,243.489792 245.933090,244.208633 
	C243.098541,244.865433 243.102692,247.556564 245.735367,248.873627 
	C252.173965,252.094696 258.929840,253.462189 266.838104,250.976593 
z"/>
<path fill="#FFFFFF" opacity="1.000000" stroke="none" 
	d="
M360.053772,246.050018 
	C358.689301,250.250229 357.918854,254.335861 355.926727,257.697540 
	C351.655334,264.905518 343.247772,265.469269 338.477570,258.759918 
	C333.267639,251.431992 328.774384,243.593170 324.006653,235.953354 
	C323.081573,234.471039 322.330994,232.879776 320.805786,230.051620 
	C320.415039,232.872894 320.093842,234.365402 320.019257,235.870102 
	C319.643158,243.454803 319.388885,251.045792 318.975525,258.628265 
	C318.727905,263.170624 315.283875,267.298096 311.620422,267.734772 
	C309.084656,268.037048 304.388824,263.714447 304.107330,259.861267 
	C303.683716,254.062408 303.529663,248.162674 304.107239,242.390488 
	C305.025452,233.213715 306.620575,224.103668 307.988800,214.974289 
	C308.153564,213.874985 308.581573,212.780457 309.066010,211.769180 
	C313.123627,203.298782 319.381592,202.616547 324.656830,210.322617 
	C330.978851,219.557816 336.965820,229.022324 343.109009,238.380219 
	C343.374115,238.784088 343.750885,239.114609 344.075653,239.479294 
	C344.581665,239.374069 345.087677,239.268845 345.593689,239.163635 
	C345.086639,236.451340 343.845825,233.625107 344.245117,231.053558 
	C344.839264,227.227188 342.876129,224.334366 342.060760,221.028519 
	C340.303894,213.905518 338.546448,206.781662 336.916168,199.629196 
	C336.545380,198.002457 336.522827,196.247223 336.631592,194.570053 
	C336.892303,190.550156 339.295837,190.109406 342.229095,191.819626 
	C348.717346,195.602493 352.580139,201.624435 355.681854,208.249878 
	C361.286865,220.222549 362.324005,232.717834 360.053772,246.050018 
z"/>
<path fill="#FFFFFF" opacity="1.000000" stroke="none" 
	d="
M373.103699,270.539886 
	C367.303772,267.181000 363.764069,262.264954 363.251007,256.295929 
	C362.852264,251.657013 364.739624,246.846649 365.390808,242.082397 
	C365.740204,239.526031 366.234192,236.739685 365.581238,234.353058 
	C364.529572,230.509140 365.043365,228.613449 369.008057,226.716171 
	C372.013855,225.277771 373.987671,221.682861 375.529724,220.012619 
	C371.845673,216.378601 368.705444,213.601135 365.961853,210.475479 
	C363.680634,207.876617 365.015594,205.683899 367.955139,205.120712 
	C376.095764,203.561005 384.283508,202.210251 392.491791,201.055313 
	C397.038879,200.415512 401.660339,200.143539 406.255585,200.043976 
	C413.357941,199.890091 419.359131,203.946152 421.728424,210.480652 
	C422.765137,213.339859 421.364624,215.545532 418.427856,215.914719 
	C411.443817,216.792694 404.415985,217.837463 397.406921,217.829956 
	C392.284637,217.824448 389.627075,219.349380 389.236755,225.000076 
	C393.845703,225.000076 398.439148,225.070572 403.029114,224.975525 
	C406.130341,224.911301 409.085358,225.334244 408.883911,229.171082 
	C408.724274,232.211578 411.318329,237.075592 404.751984,237.131439 
	C400.668060,237.166168 396.591309,237.898956 392.506104,237.958267 
	C383.333282,238.091476 382.555176,238.727310 381.128448,249.287796 
	C387.224487,248.327637 393.117737,247.329132 399.033661,246.490463 
	C403.531952,245.852798 408.349060,244.374252 411.602020,249.233429 
	C413.270569,251.725861 413.661804,254.003799 411.001526,256.612671 
	C400.499268,266.911987 388.170380,272.012695 373.103699,270.539886 
z"/>
<path fill="#FFFFFF" opacity="1.000000" stroke="none" 
	d="
M527.284912,207.589935 
	C526.270874,200.185837 525.430725,193.194626 524.708496,186.191254 
	C524.590454,185.046478 524.892334,182.851761 525.170105,182.823654 
	C529.381409,182.397690 533.648132,181.920853 537.836121,182.262512 
	C538.956604,182.353928 540.484009,185.046539 540.746704,186.714691 
	C541.738281,193.012527 542.290283,199.379791 542.998352,205.722031 
	C543.397278,209.295776 543.779480,212.871399 544.229614,217.000046 
	C553.351196,217.000046 562.467651,217.166199 571.573853,216.931732 
	C576.310974,216.809769 578.353394,218.105042 578.115356,223.341309 
	C577.613647,234.377945 579.390076,232.916763 568.571167,232.989487 
	C560.596680,233.043091 552.621582,233.000000 544.319885,233.000000 
	C543.530518,240.511536 542.776245,247.791367 541.995483,255.068359 
	C541.681702,257.993256 541.610962,260.989319 540.884766,263.812836 
	C540.070190,266.979553 538.386963,269.102325 534.317078,269.101196 
	C520.025513,269.097168 523.114990,268.417572 525.003479,256.936707 
	C526.277527,249.190796 527.189880,241.385406 528.347778,232.999969 
	C517.707275,232.999969 507.589813,233.010742 497.472412,232.995789 
	C491.747772,232.987335 491.735321,232.941437 492.921661,227.124023 
	C493.555969,224.013596 493.147919,219.349243 495.000244,218.149368 
	C497.643768,216.436905 501.927094,217.092697 505.514801,217.035065 
	C512.814270,216.917801 520.117004,217.000000 528.105347,217.000000 
	C527.887634,213.773026 527.692871,210.885910 527.284912,207.589935 
z"/>
<path fill="#FFFFFF" opacity="1.000000" stroke="none" 
	d="
M212.697083,149.708740 
	C221.679489,143.573151 231.294434,139.298080 241.641998,142.295135 
	C249.689667,144.626083 257.636871,148.724152 262.888123,155.938431 
	C265.627655,159.702042 263.821686,168.313416 259.709137,172.746246 
	C251.856888,181.210037 243.630707,189.211548 231.488434,191.091995 
	C228.766281,191.513565 226.007294,191.956421 223.266937,191.946091 
	C217.942841,191.926010 212.483200,191.201065 209.425766,197.616928 
	C205.862930,194.056503 201.181915,191.885727 203.845093,185.959351 
	C204.052917,185.496857 202.822891,184.309525 202.160263,183.546722 
	C195.452271,175.825012 198.124527,160.613602 206.173203,155.867645 
	C208.579803,154.448563 210.344086,151.940186 212.697083,149.708740 
M239.877258,176.620316 
	C243.196014,174.615082 246.605698,172.743546 249.807388,170.566147 
	C252.866257,168.485870 255.146790,162.254135 253.564713,160.175003 
	C250.624756,156.311340 246.707520,157.158829 243.174637,159.032791 
	C234.320328,163.729355 227.129486,170.331223 221.916885,179.791534 
	C227.659714,178.844223 233.402542,177.896896 239.877258,176.620316 
M216.362076,160.105377 
	C213.338013,163.834335 207.908890,166.211090 209.371399,173.263397 
	C211.138580,170.675049 212.477249,168.575287 213.959595,166.582367 
	C215.437790,164.595047 217.059998,162.714844 218.619080,160.787689 
	C218.039993,160.417816 217.460922,160.047958 216.362076,160.105377 
z"/>
<path fill="#FFFFFF" opacity="1.000000" stroke="none" 
	d="
M231.005402,245.714630 
	C231.097321,251.880905 231.699814,257.625946 231.102402,263.243347 
	C230.661865,267.385651 225.264755,270.069122 221.490982,269.002014 
	C216.692688,267.645203 213.600967,262.617432 214.158722,258.291046 
	C214.487030,255.744293 213.387009,253.045456 213.302094,250.403046 
	C213.235977,248.345734 213.911987,246.274536 213.969467,244.201492 
	C214.188400,236.304779 214.038834,228.389008 214.533844,220.512222 
	C214.813248,216.066162 215.735611,211.575043 217.055389,207.317154 
	C217.681839,205.296036 219.832565,202.477280 221.445480,202.372574 
	C223.224365,202.257111 226.078140,204.459335 226.867554,206.326736 
	C228.477570,210.135361 229.560623,214.353928 229.884995,218.480301 
	C230.584106,227.374039 230.666504,236.316254 231.005402,245.714630 
z"/>
<path fill="#47704C" opacity="1.000000" stroke="none" 
	d="
M189.532532,230.151520 
	C188.206924,244.854614 178.448318,252.761627 165.703384,257.952515 
	C154.002838,262.718048 141.574905,263.717438 129.152786,263.861176 
	C122.981895,263.932587 116.794144,262.546844 109.807007,261.725403 
	C109.807007,248.140686 109.807007,234.442474 109.807007,220.235687 
	C118.881287,219.073456 128.266922,221.290695 137.649734,223.333862 
	C140.639908,223.984985 143.624893,224.825226 146.460175,225.959183 
	C148.115082,226.621048 150.647247,228.009003 150.672256,229.117920 
	C150.706680,230.644608 148.920944,232.398483 147.577194,233.708542 
	C146.581787,234.678940 145.048203,235.097290 143.434784,235.901672 
	C143.573944,234.091064 144.032684,232.140335 144.723511,229.202576 
	C139.263885,227.947266 133.129303,226.128510 126.862999,225.180161 
	C113.426849,223.146698 113.467163,223.328247 113.952347,236.788986 
	C114.156067,242.440903 114.053055,248.106232 113.991013,253.764389 
	C113.958832,256.699890 115.027885,258.488098 118.131187,258.910370 
	C131.808731,260.771576 145.189560,259.190674 158.637451,256.395966 
	C173.831329,253.238434 183.806274,244.597046 189.532532,230.151520 
z"/>
<path fill="#47704C" opacity="1.000000" stroke="none" 
	d="
M144.063080,239.273468 
	C155.110046,242.453094 161.684677,238.237946 165.385834,229.133087 
	C167.113113,224.883957 165.194275,221.284454 163.045792,217.381958 
	C169.405945,219.360092 172.008987,229.908554 167.597092,235.852264 
	C162.977081,242.076355 157.023010,245.458023 149.206085,243.815491 
	C147.292282,243.413345 145.780548,241.097641 144.063080,239.273468 
z"/>
<path fill="#47704C" opacity="1.000000" stroke="none" 
	d="
M187.059357,218.268066 
	C188.019791,219.995377 188.997375,222.105515 189.904144,224.607956 
	C188.914398,222.883804 187.995468,220.767365 187.059357,218.268066 
z"/>
<path fill="#47704C" opacity="1.000000" stroke="none" 
	d="
M58.238762,236.735168 
	C57.154896,235.655701 56.275951,234.881882 55.509869,234.009003 
	C52.718807,230.828873 53.287231,227.609329 57.302341,226.407318 
	C63.191212,224.644348 69.208092,223.234436 75.246643,222.068985 
	C80.299561,221.093750 85.461746,220.684647 90.806389,219.995071 
	C90.806389,232.178574 90.806389,243.933716 90.806389,256.074310 
	C78.443520,251.975052 68.137680,245.055359 58.238762,236.735168 
z"/>
<path fill="#47704C" opacity="1.000000" stroke="none" 
	d="
M469.806366,232.473083 
	C464.530396,241.737839 457.465942,247.876831 447.018127,249.193451 
	C446.564331,248.800858 446.110535,248.408264 445.656769,248.015656 
	C452.700989,238.915390 459.697662,229.777298 466.860779,220.771576 
	C467.601471,219.840393 469.333099,219.697403 470.604889,219.188675 
	C471.069519,220.511261 472.048157,221.896301 471.896606,223.144043 
	C471.529572,226.165894 470.635864,229.123810 469.806366,232.473083 
z"/>
<path fill="#47704C" opacity="1.000000" stroke="none" 
	d="
M265.999664,250.833344 
	C258.929840,253.462189 252.173965,252.094696 245.735367,248.873627 
	C243.102692,247.556564 243.098541,244.865433 245.933090,244.208633 
	C249.035416,243.489792 252.577408,243.772598 255.742905,244.464630 
	C259.166382,245.213074 262.376282,246.938644 265.852203,248.886276 
	C266.016602,249.967453 266.008118,250.400406 265.999664,250.833344 
z"/>
<path fill="#47704C" opacity="1.000000" stroke="none" 
	d="
M266.418884,250.904968 
	C266.008118,250.400406 266.016602,249.967453 266.033630,249.209869 
	C270.964722,247.601990 276.003326,246.641754 280.771301,244.928391 
	C284.277954,243.668274 284.105133,241.264496 280.625488,239.997589 
	C274.307556,237.697342 267.860992,235.750351 261.233093,233.273422 
	C263.439911,233.515350 265.683472,233.581360 267.846283,234.033630 
	C273.356995,235.186035 279.027252,235.982040 284.264252,237.919373 
	C289.248566,239.763214 289.511169,243.280472 284.761444,245.430618 
	C279.108582,247.989639 272.839935,249.188446 266.418884,250.904968 
z"/>
<path fill="#47704C" opacity="1.000000" stroke="none" 
	d="
M239.511322,176.784943 
	C233.402542,177.896896 227.659714,178.844223 221.916885,179.791534 
	C227.129486,170.331223 234.320328,163.729355 243.174637,159.032791 
	C246.707520,157.158829 250.624756,156.311340 253.564713,160.175003 
	C255.146790,162.254135 252.866257,168.485870 249.807388,170.566147 
	C246.605698,172.743546 243.196014,174.615082 239.511322,176.784943 
z"/>
<path fill="#47704C" opacity="1.000000" stroke="none" 
	d="
M216.621948,159.891724 
	C217.460922,160.047958 218.039993,160.417816 218.619080,160.787689 
	C217.059998,162.714844 215.437790,164.595047 213.959595,166.582367 
	C212.477249,168.575287 211.138580,170.675049 209.371399,173.263397 
	C207.908890,166.211090 213.338013,163.834335 216.621948,159.891724 
z"/>
</svg>
